<?xml version="1.0" encoding="UTF-8"?>
<svg id="Layer_1" data-name="Layer 1" xmlns="http://www.w3.org/2000/svg" viewBox="0 0 110.44 122.28">
  <defs>
    <style>
      .cls-1 {
        fill: #cda996;
      }
    </style>
  </defs>
  <path class="cls-1" d="M109.13.04c-1.59-.53-3.2,4-7.82,8.9-9.46,10.03-20.85,9.11-41.01,14.3-12.34,3.18-21.54,5.55-31.56,11.6C22.6,38.55.78,51.72.02,71.74c-.09,2.25-.25,15.17,8.3,23.56.3-7.07,2.7-13.14,2.7-13.14,1.51-3.03,3.54-10.4,9.51-17.4,1.63-1.91,5.25-5.83,14.75-11.56,7.52-4.53,13.79-7.14,24.99-11.64,9.28-3.73,11.14-4,16.94-6.99,8.6-4.42,13.68-8.54,13.86-8.3.29.4-7.79,8.29-19.29,14.45-2.24,1.2-5.39,2.71-11.69,5.72-8.27,3.96-8.45,3.85-11.24,5.31-2.72,1.42-9.44,4.97-16.31,10.95-2.39,2.07-8.23,7.22-12.85,14.6-8.19,13.08-8.66,26.95-8.3,34.29,0,0,0,0,0,0,.32,5.83.92,10.21,2.59,10.64.29.07.85.06,1.98.02,1.45-.04,2.17-.07,2.51-.25,1.04-.55,1.03-2.5.69-6.86-.31-3.9-.71-7.28-.86-8.56-.02-.14-.03-.25-.05-.41-.26-2.27-.14-4.05.01-5.22,8.06.93,25.67,1.76,43.77-7.85,18.36-9.75,27.29-24.98,32.42-33.73,5.92-10.09,8.6-18.77,10.52-25.11C109.33,19.76,112.25,1.09,109.13.04Z"/>
</svg>